<svg xmlns="http://www.w3.org/2000/svg" xmlns:xlink="http://www.w3.org/1999/xlink" viewBox="0 0 50 50"><defs><style>.cls-1{fill:url(#Degradado_sin_nombre_3);}.cls-2{fill:url(#Degradado_sin_nombre_2);}</style><linearGradient id="Degradado_sin_nombre_3" y1="25" x2="50" y2="25" gradientTransform="translate(25 -10.35) rotate(45)" gradientUnits="userSpaceOnUse"><stop offset="0" stop-color="#41d1ff"/><stop offset="1" stop-color="#bd34fe"/></linearGradient><linearGradient id="Degradado_sin_nombre_2" x1="14.28" y1="25" x2="35.71" y2="25" gradientTransform="translate(25 -10.35) rotate(45)" gradientUnits="userSpaceOnUse"><stop offset="0" stop-color="#ffea83"/><stop offset="0.08" stop-color="#ffdd35"/><stop offset="1" stop-color="#ffa800"/></linearGradient></defs><g id="Capa_2" data-name="Capa 2"><g id="Capa_1-2" data-name="Capa 1"><path class="cls-1" d="M42.68,7.32a25,25,0,1,0,0,35.36A25,25,0,0,0,42.68,7.32ZM12.37,37.63a17.86,17.86,0,1,1,25.26,0A17.87,17.87,0,0,1,12.37,37.63Z"/><path class="cls-2" d="M32.58,17.42a10.72,10.72,0,1,0,0,15.16A10.73,10.73,0,0,0,32.58,17.42ZM22.47,27.53a3.58,3.58,0,1,1,5.06,0A3.59,3.59,0,0,1,22.47,27.53Z"/></g></g></svg>